<?xml version="1.0" encoding="utf-8"?>
<!-- Generator: Adobe Illustrator 16.0.0, SVG Export Plug-In . SVG Version: 6.00 Build 0)  -->
<!DOCTYPE svg PUBLIC "-//W3C//DTD SVG 1.0//EN" "http://www.w3.org/TR/2001/REC-SVG-20010904/DTD/svg10.dtd">
<svg version="1.0" id="Layer_1" xmlns="http://www.w3.org/2000/svg" xmlns:xlink="http://www.w3.org/1999/xlink" x="0px" y="0px"
	 width="200px" height="50px" viewBox="0 0 200 50" enable-background="new 0 0 200 50" xml:space="preserve">
<g>
	<path fill="#0E76BC" d="M195.828,4.152c-1.755,0-3.193,1.09-3.758,2.848l-11.298,32.312c-0.564,1.546-0.765,2.244-0.765,3.083
		c0,1.979,1.679,3.591,3.745,3.591c1.728,0,3.145-1.046,3.8-2.824l11.323-32.381c0.522-1.574,0.697-2.233,0.697-3.037
		C199.573,5.763,197.894,4.152,195.828,4.152z"/>
	<path fill="#2AACE2" d="M179.755,6.632c-0.552-1.745-2.071-2.872-3.87-2.872c-2.064,0-3.743,1.61-3.743,3.59
		c0,0.805,0.173,1.464,0.702,3.053l7.898,22.98l4.093-11.253L179.755,6.632z"/>
	<path fill="#0E76BC" d="M168.081,24.565c-1.184,0-2.056,0.681-2.978,1.401c-1.339,1.045-3.004,2.346-6.397,2.346
		c-3.353,0-5.693-1.921-6.311-5.022h15.372c2.785,0,4.259-1.438,4.259-4.156c0-7.468-5.101-15.193-13.635-15.193
		c-9.291,0-14.153,7.984-14.153,15.871c0,9.641,5.659,15.872,14.416,15.872c5.589,0,12.8-3.581,12.8-7.384
		C171.454,25.962,169.739,24.565,168.081,24.565z M163.854,16.44h-11.422c0.434-2.266,1.741-5.135,5.584-5.135
		c0.104,0,0.207,0.002,0.313,0.005l0.062,0.001C161.915,11.312,163.391,14.103,163.854,16.44z"/>
	<path fill="#2AACE2" d="M90.067,16.006c-2.081-0.804-4.931-1.904-4.931-2.854c0-1.74,2.826-1.791,3.148-1.791
		c2.048,0,2.996,0.715,3.999,1.472c0.834,0.631,1.781,1.345,3.151,1.345c2.49,0,3.792-1.804,3.792-3.584
		c0-4.257-6.469-6.611-10.941-6.611c-5.406,0-11.151,3.342-11.151,9.534c0,5.339,5.232,7.514,9.436,9.262
		c2.647,1.101,5.383,2.238,5.383,3.575c0,0.858-1.275,2.049-3.667,2.049c-2.523,0-4.003-1.031-5.31-1.941
		c-1.021-0.713-2.077-1.449-3.405-1.449c-2.01,0-3.584,1.667-3.584,3.792c0,3.717,5.674,6.976,12.143,6.976
		c5.697,0,11.829-3.211,11.829-10.262C99.957,19.825,94.24,17.618,90.067,16.006z"/>
	<path fill="#2AACE2" d="M69.936,3.922c-2.356,0-4.002,1.71-4.002,4.158v23.48c0,2.448,1.646,4.158,4.002,4.158
		s4.003-1.71,4.003-4.158V8.081C73.939,5.633,72.292,3.922,69.936,3.922z"/>
	<path fill="#0E76BC" d="M142.639,4.409c-0.628-0.355-1.283-0.535-1.945-0.535c-1.348,0-2.549,0.75-3.304,2.059l-8.578,13.218V3.964
		c0-2.334-1.57-3.964-3.82-3.964c-2.248,0-3.819,1.63-3.819,3.964v27.811c0,0.142,0.008,0.277,0.019,0.409
		c0.018,0.434,0.114,0.855,0.288,1.256c0.575,1.44,1.885,2.298,3.513,2.298c1.323,0,2.465-0.582,3.148-1.601l15.818-24.305
		l0.055-0.093C145.16,7.709,144.595,5.517,142.639,4.409z"/>
	<path fill="#2AACE2" d="M143.999,29.837l-5.195-8.494l-4.689,7.228l3.258,5.068c0.757,1.312,1.96,2.063,3.309,2.063
		c0.661,0,1.314-0.18,1.946-0.536C144.58,34.058,145.145,31.866,143.999,29.837z"/>
	<path fill="#2AACE2" d="M24.893,29.926c-0.568-1.599-1.874-2.593-3.405-2.593c-0.44,0-0.892,0.082-1.344,0.241l-0.698,0.247
		c-0.612,0.112-0.938,0.131-1.082,0.131c-1.019,0-1.339-0.028-1.902-0.65c-0.644-0.717-0.791-1.468-0.895-3.005
		c-0.071-0.939-0.038-7.731,0.008-12.954h4.55c2.432,0,4.003-1.449,4.003-3.69c0-2.241-1.571-3.69-4.003-3.69h-4.549
		c-0.164-2.241-1.758-3.773-3.99-3.773c-2.356,0-4.002,1.711-4.002,4.16v19.352c0,5.169,1.003,12.038,9.663,12.058
		c0.153,0.006,0.31,0.009,0.468,0.009c0.984,0,2.011-0.116,2.951-0.334l0.1-0.021c0.81-0.192,1.526-0.451,2.129-0.771
		C24.702,33.822,25.56,31.812,24.893,29.926z"/>
	<path fill="#2AACE2" d="M119.333,29.925c-0.569-1.598-1.872-2.592-3.405-2.592c-0.439,0-0.892,0.082-1.343,0.241l-0.697,0.247
		c-0.613,0.112-0.938,0.131-1.083,0.131c-1.019,0-1.338-0.028-1.901-0.65c-0.645-0.716-0.791-1.468-0.895-3.005
		c-0.072-0.94-0.039-7.731,0.008-12.954h4.551c2.432,0,4.002-1.449,4.002-3.69c0-2.241-1.57-3.69-4.002-3.69h-4.55
		c-0.165-2.241-1.758-3.773-3.989-3.773c-2.356,0-4.003,1.711-4.003,4.16v19.352c0,5.169,1.004,12.038,9.662,12.058
		c0.154,0.006,0.311,0.009,0.468,0.009c0.984,0,2.011-0.116,2.954-0.334l0.096-0.021c0.812-0.192,1.527-0.451,2.131-0.771
		C119.142,33.823,119.999,31.812,119.333,29.925z"/>
	<path fill="#0E76BC" d="M42.762,30.19L34.72,6.795c-0.625-1.823-2.031-2.911-3.763-2.911c-0.478,0-0.964,0.085-1.447,0.255
		c-2.25,0.788-3.261,2.974-2.457,5.317l8.042,23.4c0.624,1.819,2.03,2.906,3.761,2.906c0.478,0,0.966-0.087,1.448-0.256
		C42.555,34.722,43.564,32.536,42.762,30.19z"/>
	<path fill="#0E76BC" d="M53.441,30.195l-7.966-23.4c-0.625-1.823-2.031-2.911-3.762-2.911c-0.477,0-0.965,0.085-1.447,0.255
		c-2.25,0.788-3.261,2.974-2.459,5.312l7.966,23.404c0.625,1.82,2.03,2.907,3.762,2.907c0.478,0,0.966-0.086,1.45-0.256
		C53.232,34.722,54.243,32.536,53.441,30.195z"/>
	<path fill="#2AACE2" d="M61.444,4.26c-0.484-0.17-0.971-0.255-1.449-0.255c-1.731,0-3.137,1.088-3.757,2.899l-4.378,12.487
		l4.102,12.042l7.938-21.857C64.703,7.233,63.693,5.048,61.444,4.26z"/>
	<path fill="#0E76BC" d="M4.002,4.132C1.571,4.132,0,5.581,0,7.821c0,2.242,1.571,3.69,4.002,3.69h1.707v-7.38H4.002z"/>
</g>
</svg>
